Coordinates
version=1
nRows=37
nColumns=30
inDegrees=yes

Units are S.I. units (second, meters, Newtons, ...)
Angles are in degrees.

endheader
time	floatyaw	floatroll	floatpitch	floatx	floaty	floatz	pro_sup_l	deviation_l	flexion_l	cmc_flexion_l	cmc_abduction_l	mp_flexion_l	ip_flexion_l	2mcp_flexion_l	2mcp_abduction_l	2pm_flexion_l	2md_flexion_l	3mcp_flexion_l	3mcp_abduction_l	3pm_flexion_l	3md_flexion_l	4mcp_flexion_l	4mcp_abduction_l	4pm_flexion_l	4md_flexion_l	5mcp_flexion_l	5mcp_abduction_l	5pm_flexion_l	5md_flexion_l
0.005000	-2.172711	-3.701800	97.553456	0.062185	-0.124572	0.042682	77.388160	18.489236	2.416416	-1.841797	40.049747	-24.386237	-42.673661	54.851752	6.827984	64.067908	42.436425	59.643446	6.602443	70.020083	47.197223	60.448495	-4.883073	78.527670	52.038083	45.556515	-10.348387	77.069119	48.077897
0.015000	-2.172711	-3.701800	97.553456	0.062480	-0.123083	0.042371	76.400949	18.896957	2.168713	-2.507968	40.422797	-24.875839	-43.428753	56.223806	6.597930	63.475173	42.432081	61.281130	6.581369	70.339977	47.866404	62.816636	-4.937413	79.018997	53.147000	47.092695	-10.015123	77.610914	47.668231
0.025000	-2.172711	-3.701800	97.553456	0.062593	-0.121001	0.042057	75.685335	19.305423	1.780350	-3.058702	40.710092	-25.293790	-44.036655	57.007414	6.420379	63.144578	42.424701	62.283014	6.589962	70.432671	48.435709	64.365304	-4.944899	79.367182	54.073026	48.607611	-9.950280	77.544541	47.000689
0.035000	-2.172711	-3.701800	97.553456	0.062605	-0.118453	0.041777	75.230602	19.719857	1.363821	-3.566009	40.974308	-25.620592	-44.515152	57.379862	6.316945	63.122985	42.420814	62.829763	6.618518	70.379692	48.935871	65.232887	-4.916818	79.673969	54.850187	49.960785	-10.086078	77.218706	46.344996
0.045000	-2.172711	-3.701800	97.553456	0.062578	-0.115684	0.041558	75.053458	20.133843	1.031396	-4.011372	41.253099	-25.839636	-44.903547	57.497837	6.270385	63.303216	42.366915	63.087716	6.647761	70.229742	49.340227	65.603981	-4.870358	79.951443	55.468655	50.989251	-10.306938	76.859667	45.864880
0.055000	-2.172711	-3.701800	97.553456	0.062548	-0.113027	0.041402	75.131737	20.532184	0.853419	-4.331492	41.544100	-25.954712	-45.247871	57.485427	6.245917	63.500266	42.205423	63.188671	6.661835	70.019673	49.607740	65.674214	-4.824015	80.168551	55.903395	51.599684	-10.504575	76.547068	45.614315
0.065000	-2.172711	-3.701800	97.553456	0.062520	-0.110825	0.041279	75.370757	20.893812	0.834086	-4.472966	41.813975	-25.994815	-45.584891	57.429851	6.212309	63.545029	41.925753	63.218771	6.655356	69.784564	49.725066	65.611418	-4.791957	80.293008	56.148402	51.811947	-10.614057	76.256342	45.567675
0.075000	-2.172711	-3.701800	97.553456	0.062467	-0.109318	0.041140	75.623712	21.195509	0.920740	-4.426970	42.022377	-26.002242	-45.930816	57.378618	6.154523	63.354937	41.580312	63.216006	6.633012	69.557527	49.722396	65.524036	-4.780272	80.315015	56.233251	51.735848	-10.622449	75.934569	45.661758
0.085000	-2.172711	-3.701800	97.553456	0.062352	-0.108574	0.040936	75.749720	21.417073	1.038563	-4.231564	42.145286	-26.011829	-46.279462	57.341415	6.075157	62.952215	41.259304	63.179356	6.604197	69.364502	49.657933	65.450183	-4.786903	80.252165	56.214800	51.505314	-10.554847	75.563162	45.830937
0.095000	-2.172711	-3.701800	97.553456	0.062143	-0.108482	0.040646	75.671616	21.546995	1.126774	-3.950066	42.185864	-26.034422	-46.609094	57.301336	5.987453	62.429700	41.044452	63.088488	6.577032	69.218720	49.586921	65.372423	-4.804741	80.140682	56.153891	51.217118	-10.450445	75.174151	46.025771
0.105000	-2.172711	-3.701800	97.553456	0.061834	-0.108816	0.040293	75.400950	21.586415	1.156812	-3.643883	42.170043	-26.054443	-46.892687	57.233175	5.905761	61.892346	40.971764	62.925487	6.555122	69.118225	49.537848	65.249162	-4.825714	80.020046	56.093808	50.907989	-10.341789	74.822020	46.216364
0.115000	-2.172711	-3.701800	97.553456	0.061447	-0.109322	0.039932	75.020404	21.549231	1.129628	-3.354299	42.132128	-26.042455	-47.106477	57.119940	5.838790	61.410152	41.022863	62.688191	6.537795	69.048627	49.508713	65.045520	-4.843801	79.918942	56.052061	50.570728	-10.244924	74.542626	46.388433
0.125000	-2.172711	-3.701800	97.553456	0.061018	-0.109797	0.039626	74.637447	21.457816	1.062278	-3.098021	42.099256	-25.974489	-47.235039	56.959927	5.787902	61.003187	41.143941	62.391113	6.522403	68.990597	49.480543	64.750633	-4.856145	79.848527	56.026295	50.186380	-10.160744	74.332168	46.539064
0.135000	-2.172711	-3.701800	97.553456	0.060584	-0.110136	0.039421	74.335267	21.336063	0.975239	-2.873373	42.082330	-25.846636	-47.274161	56.763690	5.749407	60.656318	41.276170	62.058184	6.506677	68.928678	49.435956	64.379140	-4.862640	79.804358	56.006904	49.748820	-10.082585	74.156914	46.673863
0.145000	-2.172711	-3.701800	97.553456	0.060171	-0.110328	0.039329	74.144357	21.202925	0.885472	-2.670598	42.076372	-25.678088	-47.232814	56.546133	5.718234	60.346574	41.379526	61.714429	6.489949	68.857606	49.371212	63.962505	-4.864862	79.774619	55.987301	49.271670	-10.004070	73.981180	46.803396
0.155000	-2.172711	-3.701800	97.553456	0.059792	-0.110427	0.039329	74.044070	21.069014	0.804378	-2.480430	42.067890	-25.503705	-47.133120	56.319525	5.690723	60.065100	41.440876	61.380566	6.473160	68.784425	49.297183	63.537213	-4.865016	79.750657	55.966841	48.780980	-9.923503	73.792588	46.937321
0.165000	-2.172711	-3.701800	97.553456	0.059449	-0.110503	0.039383	73.987031	20.936987	0.738038	-2.298434	42.043789	-25.361491	-47.006478	56.090437	5.665763	59.823690	41.468236	61.070544	6.458136	68.726292	49.231777	63.134562	-4.865151	79.734820	55.947383	48.303133	-9.844252	73.609815	47.077796
0.175000	-2.172711	-3.701800	97.553456	0.059139	-0.110608	0.039455	73.929435	20.804697	0.688140	-2.125826	41.997035	-25.280223	-46.886404	55.860632	5.644556	59.646111	41.479063	60.790853	6.446652	68.704438	49.190054	62.774437	-4.866663	79.740976	55.928502	47.855993	-9.772420	73.470909	47.215924
0.185000	-2.172711	-3.701800	97.553456	0.058857	-0.110759	0.039527	73.851001	20.669244	0.653140	-1.968500	41.927468	-25.271107	-46.800863	55.630168	5.629587	59.552413	41.490004	60.541197	6.439642	68.736039	49.177875	62.463749	-4.870110	79.787158	55.906122	47.446020	-9.713726	73.411948	47.334108
0.195000	-2.172711	-3.701800	97.553456	0.058601	-0.110941	0.039595	73.757474	20.530084	0.629487	-1.834840	41.839177	-25.326465	-46.766231	55.400279	5.623270	59.546887	41.511856	60.316523	6.436785	68.827496	49.191771	62.198675	-4.875349	79.885514	55.875584	47.069588	-9.671143	73.449961	47.413908
0.205000	-2.172711	-3.701800	97.553456	0.058364	-0.111125	0.039667	73.669461	20.390153	0.612554	-1.732122	41.737135	-25.426018	-46.783350	55.174405	5.626717	59.615817	41.549565	60.110017	6.436636	68.972257	49.223594	61.969044	-4.881850	80.036155	55.836178	46.715823	-9.643974	73.578567	47.445512
0.215000	-2.172711	-3.701800	97.553456	0.058141	-0.111285	0.039748	73.607427	20.255054	0.596953	-1.662310	41.625235	-25.547310	-46.836522	54.957560	5.639081	59.733479	41.604567	59.916331	6.437273	69.153472	49.265874	61.763277	-4.889005	80.227622	55.793090	46.370063	-9.628233	73.775224	47.433678
0.225000	-2.172711	-3.701800	97.553456	0.057922	-0.111415	0.039839	73.581384	20.130922	0.576617	-1.619632	41.506446	-25.674467	-46.897731	54.755234	5.657735	59.870834	41.676593	59.733854	6.437162	69.349514	49.314431	61.572510	-4.896330	80.442151	55.755134	46.018021	-9.617976	74.013359	47.396635
0.235000	-2.172711	-3.701800	97.553456	0.057700	-0.111520	0.039931	73.588306	20.021878	0.545520	-1.592105	41.384221	-25.801316	-46.937199	54.572269	5.679258	60.003126	41.763861	59.564824	6.435788	69.540330	49.367914	61.392708	-4.903586	80.662509	55.730158	45.650066	-9.607271	74.272828	47.358285
0.245000	-2.172711	-3.701800	97.553456	0.057469	-0.111620	0.040016	73.615500	19.928151	0.499551	-1.566633	41.263482	-25.928986	-46.936978	54.411360	5.700810	60.115778	41.862252	59.413010	6.433661	69.713169	49.426176	61.224273	-4.910796	80.877719	55.721459	45.264427	-9.592392	74.544550	47.337857
0.255000	-2.172711	-3.701800	97.553456	0.057233	-0.111729	0.040090	73.646567	19.845943	0.438896	-1.534875	41.149943	-26.060967	-46.900223	54.271393	5.721140	60.207840	41.964550	59.280448	6.431760	69.865904	49.489114	61.069908	-4.918144	81.085450	55.727113	44.868481	-9.573360	74.827820	47.342483
0.265000	-2.172711	-3.701800	97.553456	0.057001	-0.111854	0.040152	73.667322	19.769371	0.369476	-1.496529	41.047769	-26.198626	-46.849455	54.146935	5.740608	60.290431	42.060971	59.165411	6.430813	70.005950	49.556252	60.932183	-4.925760	81.289642	55.741874	44.477516	-9.553784	75.122533	47.366259
0.275000	-2.172711	-3.701800	97.553456	0.056789	-0.111992	0.040209	73.670159	19.693508	0.302080	-1.458553	40.956917	-26.338847	-46.813430	54.029929	5.760226	60.378864	42.141872	59.062743	6.430884	70.144471	49.626565	60.811745	-4.933568	81.494371	55.760017	44.110470	-9.538720	75.421682	47.395423
0.285000	-2.172711	-3.701800	97.553456	0.056610	-0.112124	0.040262	73.655973	19.616741	0.248987	-1.431287	40.872212	-26.474541	-46.810009	53.912806	5.780431	60.482073	42.201916	58.965932	6.431458	70.288776	49.698067	60.706214	-4.941330	81.698018	55.777347	43.783310	-9.531621	75.709057	47.415901
0.295000	-2.172711	-3.701800	97.553456	0.056469	-0.112233	0.040315	73.632979	19.541193	0.219418	-1.423763	40.785462	-26.598079	-46.835694	53.790916	5.800404	60.596477	42.242928	58.869310	6.431865	70.437658	49.767157	60.609623	-4.948850	81.892334	55.791331	43.502703	-9.532160	75.963373	47.418956
0.305000	-2.172711	-3.701800	97.553456	0.056362	-0.112302	0.040365	73.612570	19.471210	0.216018	-1.439973	40.689941	-26.705935	-46.868738	53.662949	5.818271	60.708865	42.272601	58.769404	6.431728	70.582576	49.828652	60.513166	-4.956138	82.067299	55.799998	43.263503	-9.536295	76.166310	47.403056
0.315000	-2.172711	-3.701800	97.553456	0.056275	-0.112329	0.040408	73.603783	19.411078	0.233991	-1.476968	40.584803	-26.801008	-46.884086	53.530135	5.831960	60.805861	42.298994	58.665653	6.431185	70.713153	49.877560	60.408389	-4.963343	82.217625	55.801533	43.052312	-9.538461	76.309928	47.372701
0.325000	-2.172711	-3.701800	97.553456	0.056197	-0.112324	0.040443	73.609153	19.363257	0.263093	-1.525397	40.476641	-26.890043	-46.870174	53.396020	5.840185	60.882472	42.324418	58.561070	6.430823	70.822480	49.912269	60.292163	-4.970493	82.345296	55.795721	42.855980	-9.534508	76.399228	47.335803
0.335000	-2.172711	-3.701800	97.553456	0.056123	-0.112306	0.040470	73.624188	19.327780	0.291522	-1.572835	40.376829	-26.977758	-46.835840	53.266822	5.843102	60.943992	42.343554	58.462303	6.431382	70.909043	49.936892	60.170163	-4.977285	82.456703	55.785871	42.669910	-9.523616	76.448955	47.300779
0.345000	-2.172711	-3.701800	97.553456	0.056054	-0.112293	0.040489	73.640417	19.302666	0.310276	-1.608629	40.295754	-27.062790	-46.803089	53.150361	5.842344	61.001922	42.347742	58.377764	6.433391	70.975972	49.960332	60.055277	-4.983133	82.558236	55.778543	42.500025	-9.508273	76.478000	47.274216
0.355000	-2.172711	-3.701800	97.553456	0.055996	-0.112297	0.040503	73.649746	19.284757	0.316375	-1.627535	40.237290	-27.139346	-46.792323	53.052395	5.840419	61.068534	42.332436	58.313709	6.436914	71.029978	49.991923	59.960949	-4.987486	82.654758	55.780241	42.356502	-9.492630	76.505428	47.259706
0.365000	-2.172711	-3.701800	97.553456	0.055956	-0.112321	0.040516	73.647652	19.270579	0.313412	-1.630152	40.197026	-27.203059	-46.811385	52.972643	5.839759	61.152932	42.302073	58.270618	6.441499	71.080332	50.036411	59.893703	-4.990147	82.750807	55.793526	42.244193	-9.480413	76.548370	47.257846
